<!DOCTYPE svg PUBLIC "-//W3C//DTD SVG 1.1//EN" "http://www.w3.org/Graphics/SVG/1.1/DTD/svg11.dtd">
<!-- Uploaded to: SVG Repo, www.svgrepo.com, Transformed by: SVG Repo Mixer Tools -->
<svg width="800px" height="800px" viewBox="0 0 16 16" fill="none" xmlns="http://www.w3.org/2000/svg">
<g id="SVGRepo_bgCarrier" stroke-width="0"/>
<g id="SVGRepo_tracerCarrier" stroke-linecap="round" stroke-linejoin="round"/>
<g id="SVGRepo_iconCarrier"> <path d="M3 1H0V5C0 6.65685 1.34315 8 3 8L2.03553 8.96447C1.37249 9.62751 1 10.5268 1 11.4645C1 13.4171 2.58291 15 4.53553 15C5.47322 15 6.37249 14.6275 7.03553 13.9645L8 13L8.96447 13.9645C9.62751 14.6275 10.5268 15 11.4645 15C13.4171 15 15 13.4171 15 11.4645C15 10.5268 14.6275 9.62751 13.9645 8.96447L13 8C14.6569 8 16 6.65685 16 5V1H13L8 6L3 1Z" fill="#e41111"/> </g>
</svg>